<?xml version="1.0" encoding="UTF-8"?>
<svg version="1.1" xmlns="http://www.w3.org/2000/svg" width="196" height="194">
<path d="M0 0 C12.62599285 11.46371637 21.95236087 24.87675178 27.44921875 40.99755859 C27.68793701 41.69244385 27.92665527 42.3873291 28.17260742 43.10327148 C32.18914676 55.69908075 32.39886465 68.49361031 32.41015625 81.57177734 C32.41660047 83.345282 32.42332997 85.11878565 32.43032837 86.89228821 C32.44222058 90.58601345 32.44601706 94.27964568 32.44482422 97.97338867 C32.44462031 102.68385169 32.47203252 107.39371632 32.50636864 112.10403728 C32.52869161 115.75796711 32.53266028 119.41175339 32.53160477 123.0657444 C32.53394835 124.80192966 32.54270095 126.53811964 32.5582695 128.27423668 C32.64456667 138.88046854 32.16040891 147.59441868 26.26171875 156.74755859 C17.8479543 165.16132304 9.27132068 167.26311091 -2.47384644 167.35189819 C-3.80939051 167.34653103 -5.14493163 167.34037871 -6.48046875 167.33349609 C-7.87289583 167.33552083 -9.26532188 167.33843559 -10.65774536 167.3421936 C-13.55741604 167.3465894 -16.45680737 167.34026953 -19.35644531 167.32617188 C-23.07223865 167.30898476 -26.78738634 167.31899766 -30.50315666 167.33688927 C-33.37019744 167.34772009 -36.23708444 167.34428576 -39.10412979 167.33650589 C-40.47486574 167.33450688 -41.84561572 167.33695268 -43.2163353 167.34394455 C-45.1258289 167.35155707 -47.03537169 167.33789823 -48.94482422 167.32324219 C-50.03020477 167.32085541 -51.11558533 167.31846863 -52.2338562 167.31600952 C-54.92578125 166.93505859 -54.92578125 166.93505859 -56.77532959 165.68685913 C-58.22451134 163.48018027 -58.30594128 162.15040426 -58.31396484 159.51806641 C-58.32814957 158.17956635 -58.32814957 158.17956635 -58.34262085 156.81402588 C-58.33654816 155.84849792 -58.33047546 154.88296997 -58.32421875 153.88818359 C-58.32708893 152.88478943 -58.32995911 151.88139526 -58.33291626 150.84759521 C-58.33496041 148.71577391 -58.32940614 146.583934 -58.31689453 144.45214844 C-58.30104716 141.23897396 -58.31662603 138.02709653 -58.3359375 134.81396484 C-58.35473411 117.55598842 -58.04121544 101.6126166 -45.73828125 88.24755859 C-37.14327223 80.29060701 -28.12565974 76.56743879 -16.92578125 73.93505859 C-16.92578125 72.61505859 -16.92578125 71.29505859 -16.92578125 69.93505859 C-17.95316406 69.66693359 -18.98054687 69.39880859 -20.0390625 69.12255859 C-33.29130593 65.45991048 -43.78591759 59.39390995 -51.92578125 47.93505859 C-55.33592404 41.86268944 -57.50544051 35.60744502 -59.0546875 28.83349609 C-59.34214844 28.20701172 -59.62960938 27.58052734 -59.92578125 26.93505859 C-61.9474753 26.09409288 -61.9474753 26.09409288 -63.92578125 25.93505859 C-64.08433594 26.75748047 -64.24289063 27.57990234 -64.40625 28.42724609 C-67.2101331 41.84250999 -72.2324331 52.26407254 -83.34375 60.79052734 C-93.10145639 67.07331127 -103.17874481 68.388338 -114.59375 68.22802734 C-115.75457596 68.2237825 -116.91540192 68.21953766 -118.11140442 68.21516418 C-121.77894376 68.19851933 -125.44591109 68.16089347 -129.11328125 68.12255859 C-131.61652846 68.10749343 -134.11978438 68.09380825 -136.62304688 68.08154297 C-142.72414986 68.04866245 -148.82492467 67.99860668 -154.92578125 67.93505859 C-154.94289287 66.35453051 -154.95501902 64.77394802 -154.96508789 63.19335938 C-154.97238419 62.31318146 -154.97968048 61.43300354 -154.98719788 60.52615356 C-154.89943485 56.82353489 -154.24865457 53.39542954 -153.36328125 49.81005859 C-153.18619629 49.08778076 -153.00911133 48.36550293 -152.82666016 47.62133789 C-146.53765301 23.4661914 -130.81124673 2.44009528 -109.2265625 -10.23681641 C-73.83791997 -29.83667996 -30.79280886 -26.7043358 0 0 Z " fill="#6171FD" transform="translate(159.92578125,25.06494140625)"/>
<path d="M0 0 C7.30985434 -0.10223167 14.61952128 -0.17181144 21.92993164 -0.21972656 C24.41177256 -0.2397219 26.89356709 -0.26692726 29.37524414 -0.30175781 C32.96251947 -0.35080964 36.54916678 -0.37309058 40.13671875 -0.390625 C41.22893234 -0.41127014 42.32114594 -0.43191528 43.44645691 -0.45318604 C56.33002741 -0.45685774 67.66504469 3.18421575 77.15234375 12 C85.23482579 20.42865911 89.14089351 29.97936513 89.11352539 41.63818359 C89.11341209 43.25918472 89.11341209 43.25918472 89.11329651 44.91293335 C89.10813522 46.06314972 89.10297394 47.21336609 89.09765625 48.3984375 C89.0962413 49.58853424 89.09482635 50.77863098 89.09336853 52.00479126 C89.0877842 55.79488672 89.07523451 59.58492248 89.0625 63.375 C89.05748298 65.9492179 89.05292042 68.52343672 89.04882812 71.09765625 C89.03781989 77.39845777 89.02109731 83.69922462 89 90 C85.33532948 90.84058009 81.93175593 91.13565686 78.17504883 91.16113281 C77.02647903 91.17074036 75.87790924 91.1803479 74.6945343 91.19024658 C73.46115829 91.19449646 72.22778229 91.19874634 70.95703125 91.203125 C69.67825607 91.20882507 68.3994809 91.21452515 67.08195496 91.22039795 C64.37616583 91.23088009 61.67040615 91.23674033 58.96459961 91.24023438 C55.52295418 91.24570052 52.08170806 91.26969944 48.64018726 91.29820633 C45.3291442 91.32148839 42.01815179 91.3232929 38.70703125 91.328125 C36.87214897 91.3466452 36.87214897 91.3466452 35.00019836 91.36553955 C24.10432179 91.33745509 15.0879451 89.70966705 7 82 C-2.83151653 70.89263781 -1.21221508 55.54292284 -0.87890625 41.6015625 C-0.85529526 40.40058929 -0.83168427 39.19961609 -0.80735779 37.96224976 C-0.73170656 34.18301554 -0.64726757 30.40403957 -0.5625 26.625 C-0.50918028 24.0390745 -0.45644086 21.45313697 -0.40429688 18.8671875 C-0.27622751 12.57797051 -0.14097245 6.28894032 0 0 Z " fill="#5F6FFE" transform="translate(5,101)"/>
<path d="M0 0 C3.12095194 2.80085431 3.90528019 4.33696131 4.5 8.5 C3.9231981 12.53761333 2.85349783 14.14650217 0 17 C-3.22640088 18.61320044 -6.5114756 18.58810373 -10 18 C-13.31541064 15.60161784 -14.68360676 13.92940514 -16 10.0625 C-16 6.15544281 -15.21495196 4.21525285 -13 1 C-8.24163751 -2.46062726 -5.32067711 -2.36474538 0 0 Z " fill="#6170FA" transform="translate(188,4)"/>
<path d="M0 0 C0.33 0 0.66 0 1 0 C1 17.82 1 35.64 1 54 C-2.8885535 54.7777107 -5.93011935 55.13472017 -9.82495117 55.16113281 C-11.54780586 55.17554413 -11.54780586 55.17554413 -13.3054657 55.19024658 C-14.53884171 55.19449646 -15.77221771 55.19874634 -17.04296875 55.203125 C-18.32174393 55.20882507 -19.6005191 55.21452515 -20.91804504 55.22039795 C-23.62383417 55.23088009 -26.32959385 55.23674033 -29.03540039 55.24023438 C-32.47704582 55.24570052 -35.91829194 55.26969944 -39.35981274 55.29820633 C-42.6708558 55.32148839 -45.98184821 55.3232929 -49.29296875 55.328125 C-51.12785103 55.3466452 -51.12785103 55.3466452 -52.99980164 55.36553955 C-69.3316366 55.32344373 -69.3316366 55.32344373 -74.77067566 50.39581299 C-75.37919121 49.70488556 -75.37919121 49.70488556 -76 49 C-73.69 49.33 -71.38 49.66 -69 50 C-69 50.66 -69 51.32 -69 52 C-46.23 52.33 -23.46 52.66 0 53 C0 35.51 0 18.02 0 0 Z " fill="#ACB1E7" transform="translate(93,137)"/>
<path d="M0 0 C1.26199941 3.63639952 0.75413065 6.34530115 0.00390625 10.078125 C-0.33930664 11.81835938 -0.33930664 11.81835938 -0.68945312 13.59375 C-0.93630859 14.8003125 -1.18316406 16.006875 -1.4375 17.25 C-1.68048828 18.47203125 -1.92347656 19.6940625 -2.17382812 20.953125 C-2.7749192 23.97036646 -3.3839178 26.98579011 -4 30 C2.59800644 29.88120327 9.19588115 29.7564165 15.79370117 29.62768555 C18.0329336 29.58467605 20.2721917 29.54298113 22.51147461 29.50268555 C39.77961422 29.22625733 39.77961422 29.22625733 57 28 C57 27.34 57 26.68 57 26 C58.32 26 59.64 26 61 26 C61 25.01 61 24.02 61 23 C62.32 23.66 63.64 24.32 65 25 C63.50565577 25.80229137 62.00413528 26.59121867 60.5 27.375 C59.6646875 27.81585938 58.829375 28.25671875 57.96875 28.7109375 C50.17935774 32.09317361 43.00226479 32.27265898 34.625 32.1953125 C33.4599292 32.1924826 32.2948584 32.18965271 31.09448242 32.18673706 C27.39621438 32.17559807 23.69819408 32.15050479 20 32.125 C17.48307643 32.1149621 14.96614904 32.10583766 12.44921875 32.09765625 C6.29939553 32.0756793 0.14971547 32.04226444 -6 32 C-6.0219284 30.42755377 -6.03742497 28.85501718 -6.05029297 27.2824707 C-6.0596286 26.40677933 -6.06896423 25.53108795 -6.07858276 24.62886047 C-5.96024502 20.67006099 -5.11074977 17.00815425 -4.125 13.1875 C-3.95097656 12.46369141 -3.77695313 11.73988281 -3.59765625 10.99414062 C-2.66036299 7.19289575 -1.56987233 3.59939195 0 0 Z " fill="#98A1F1" transform="translate(11,61)"/>
<path d="M0 0 C7.4564542 -0.02536111 14.91289727 -0.04287159 22.36938477 -0.05493164 C24.90584733 -0.05995948 27.44230699 -0.06678262 29.97875977 -0.07543945 C33.62517004 -0.08757274 37.27154197 -0.09324384 40.91796875 -0.09765625 C42.05147263 -0.10281754 43.1849765 -0.10797882 44.35282898 -0.11329651 C45.94391228 -0.11340981 45.94391228 -0.11340981 47.56713867 -0.11352539 C48.96279305 -0.11685631 48.96279305 -0.11685631 50.38664246 -0.12025452 C53.01814708 0.00083504 55.43509391 0.41481802 58 1 C58 1.33 58 1.66 58 2 C39.19 1.67 20.38 1.34 1 1 C1.11996709 12.22864621 1.11996709 12.22864621 1.2578125 23.45703125 C1.31803054 28.03918185 1.37619141 32.62129172 1.421875 37.20361328 C1.45885375 40.89957785 1.50524707 44.59531713 1.55806351 48.2910881 C1.57654079 49.69837858 1.59167316 51.10571722 1.60334396 52.5130806 C1.62032026 54.49010019 1.6504862 56.46699302 1.68115234 58.44384766 C1.69447601 59.56747711 1.70779968 60.69110657 1.7215271 61.8487854 C2.01573777 65.17808949 2.86096222 67.8692577 4 71 C4.36920191 72.99369031 4.71325582 74.99279077 5 77 C5.99 77.33 6.98 77.66 8 78 C8.33 79.65 8.66 81.3 9 83 C3.54315209 78.30104763 0.52902462 73.1443643 -0.39390564 65.91415405 C-0.92831825 57.78393098 -1.07361026 49.74547768 -0.87890625 41.6015625 C-0.85529526 40.40058929 -0.83168427 39.19961609 -0.80735779 37.96224976 C-0.73170656 34.18301554 -0.64726757 30.40403957 -0.5625 26.625 C-0.50918028 24.0390745 -0.45644086 21.45313697 -0.40429688 18.8671875 C-0.27622751 12.57797051 -0.14097245 6.28894032 0 0 Z " fill="#A1ABF3" transform="translate(5,101)"/>
<path d="M0 0 C2.46666727 2.46666727 2.9603856 4.14329653 3.12025452 7.60063171 C3.11803391 8.64209854 3.11581329 9.68356537 3.11352539 10.7565918 C3.11344986 11.93758957 3.11337433 13.11858734 3.11329651 14.33537292 C3.10813522 15.61044205 3.10297394 16.88551117 3.09765625 18.19921875 C3.0962413 19.50454056 3.09482635 20.80986237 3.09336853 22.15473938 C3.0895538 25.62189656 3.07973244 29.08901174 3.06866455 32.55615234 C3.05842798 36.09537172 3.05381129 39.6345981 3.04882812 43.17382812 C3.03864014 50.1159225 3.01906588 57.05790156 3 64 C-15.48 64 -33.96 64 -53 64 C-53 63.67 -53 63.34 -53 63 C-34.85 63 -16.7 63 2 63 C1.7834375 49.9753125 1.7834375 49.9753125 1.5625 36.6875 C1.51939697 33.94783936 1.47629395 31.20817871 1.43188477 28.38549805 C1.39376656 26.21923166 1.35529783 24.05297139 1.31640625 21.88671875 C1.29993042 20.75770142 1.28345459 19.62868408 1.26647949 18.4654541 C1.24629761 17.38977173 1.22611572 16.31408936 1.20532227 15.20581055 C1.18200584 13.80349434 1.18200584 13.80349434 1.15821838 12.37284851 C1.09027292 9.85013487 1.09027292 9.85013487 0 7 C-0.03954234 4.66700175 -0.04401732 2.33291811 0 0 Z " fill="#646FED" transform="translate(90,126)"/>
<path d="M0 0 C0.99 1.485 0.99 1.485 2 3 C1.01 3.495 1.01 3.495 0 4 C-0.33 3.34 -0.66 2.68 -1 2 C-4.3 2 -7.6 2 -11 2 C-10.938125 3.423125 -10.87625 4.84625 -10.8125 6.3125 C-10.62788462 10.55865385 -10.62788462 10.55865385 -12.51171875 12.79296875 C-13.00285156 13.19128906 -13.49398437 13.58960938 -14 14 C-15.49726387 10.05983191 -16.25895705 7.8416104 -15 3.75 C-10.70629497 -2.15384442 -6.59555332 -2.7904264 0 0 Z " fill="#6370F2" transform="translate(188,4)"/>
<path d="M0 0 C1.1328125 3.71875 1.1328125 3.71875 -0.0625 6.25 C-1.68085316 8.54701739 -3.35320688 10.77121584 -5.0625 13 C-7.26651709 15.88764522 -8.90469752 18.49503208 -10 22 C-10.66 22 -11.32 22 -12 22 C-12.33 22.99 -12.66 23.98 -13 25 C-13.33 24.34 -13.66 23.68 -14 23 C-10.73456203 14.4880006 -5.54986245 7.15566021 0 0 Z " fill="#8891EE" transform="translate(26,36)"/>
<path d="M0 0 C2.8125 -0.3125 2.8125 -0.3125 6 0 C8.75613818 2.93988073 9.16677466 5.42304401 9.1875 9.3125 C9.125625 10.529375 9.06375 11.74625 9 13 C7.70275767 10.59083568 6.85536301 8.47310813 6.125 5.8125 C5.75375 4.884375 5.3825 3.95625 5 3 C2.9776149 2.28316381 2.9776149 2.28316381 1 2 C0.80664062 2.91523437 0.61328125 3.83046875 0.4140625 4.7734375 C0.15367188 5.96195313 -0.10671875 7.15046875 -0.375 8.375 C-0.63023438 9.55835938 -0.88546875 10.74171875 -1.1484375 11.9609375 C-2 15 -2 15 -4 17 C-3.58411954 10.80481527 -2.39748106 5.73310689 0 0 Z " fill="#98A2EE" transform="translate(95,49)"/>
<path d="M0 0 C0.66 0 1.32 0 2 0 C2.04898437 0.65226563 2.09796875 1.30453125 2.1484375 1.9765625 C2.57532648 6.96674748 3.27960363 11.26890997 5 16 C5.36920191 17.99369031 5.71325582 19.99279077 6 22 C6.99 22.33 7.98 22.66 9 23 C9.33 24.65 9.66 26.3 10 28 C4.29242897 23.08514717 1.48555141 17.82776365 0.53125 10.3046875 C0.28130976 6.86800915 0.09798299 3.44410203 0 0 Z " fill="#8692EE" transform="translate(4,156)"/>
<path d="M0 0 C1.93833996 0.08715017 3.8757429 0.19532964 5.8125 0.3125 C7.43091797 0.39951172 7.43091797 0.39951172 9.08203125 0.48828125 C12 1 12 1 13.8671875 2.3515625 C15.6204734 4.90289578 15.31939026 6.99773158 15 10 C12.41073669 12.58926331 10.97294721 12.37398043 7.375 12.625 C6.37210938 12.69976562 5.36921875 12.77453125 4.3359375 12.8515625 C3.17964844 12.92503906 3.17964844 12.92503906 2 13 C5.68734758 10.54176828 8.69699971 9.98757384 13 9 C13 7.68 13 6.36 13 5 C8.71 3.68 4.42 2.36 0 1 C0 0.67 0 0.34 0 0 Z " fill="#AFB5F7" transform="translate(130,90)"/>
<path d="M0 0 C2.86820493 2.86820493 2.99089648 4.70032784 3.11352539 8.73706055 C3.11336731 10.28695563 3.10773287 11.83685641 3.09765625 13.38671875 C3.0962413 14.20372757 3.09482635 15.02073639 3.09336853 15.86250305 C3.08777294 18.47087268 3.07522129 21.07915634 3.0625 23.6875 C3.05748443 25.45637897 3.05292162 27.22525928 3.04882812 28.99414062 C3.03780496 33.32946019 3.02054338 37.66471552 3 42 C2.67 42 2.34 42 2 42 C1.97494385 41.04633545 1.9498877 40.0926709 1.92407227 39.11010742 C1.82987929 35.57090893 1.72968769 32.03190125 1.62768555 28.49291992 C1.58438167 26.96138982 1.54270333 25.42981285 1.50268555 23.89819336 C1.44487268 21.69630818 1.38121031 19.49465789 1.31640625 17.29296875 C1.29969376 16.60849167 1.28298126 15.92401459 1.26576233 15.21879578 C1.1726445 12.22879896 0.95312563 9.85937689 0 7 C-0.03954234 4.66700175 -0.04401732 2.33291811 0 0 Z " fill="#7682ED" transform="translate(90,126)"/>
<path d="M0 0 C0.33 0 0.66 0 1 0 C1 1.65 1 3.3 1 5 C1.639375 5.226875 2.27875 5.45375 2.9375 5.6875 C5 7 5 7 5.625 9.5625 C5.74875 10.366875 5.8725 11.17125 6 12 C6.66 12.33 7.32 12.66 8 13 C8 13.99 8 14.98 8 16 C8.66 16 9.32 16 10 16 C10.33 15.34 10.66 14.68 11 14 C11.33 16.31 11.66 18.62 12 21 C5.95356392 16.68111708 1.64771399 10.92551936 -0.73046875 3.81640625 C-1 2 -1 2 0 0 Z " fill="#8D97F0" transform="translate(105,61)"/>
<path d="M0 0 C9.12636505 4.68954758 9.12636505 4.68954758 12 9 C11.01 9.495 11.01 9.495 10 10 C9.34 9.67 8.68 9.34 8 9 C8 8.34 8 7.68 8 7 C7.01 7 6.02 7 5 7 C5 6.34 5 5.68 5 5 C4.34 5 3.68 5 3 5 C3 4.34 3 3.68 3 3 C-1.32448133 2.26167392 -5.65535464 1.60825035 -10 1 C-6.34539056 -1.38955233 -4.14511496 -1.22818221 0 0 Z " fill="#8F98EE" transform="translate(69,104)"/>
<path d="M0 0 C2 2 2 2 2.375 5.3125 C1.94452982 9.54545677 0.96639625 11.03360375 -2 14 C-5.21451269 15.60725635 -8.43612536 15.05748185 -12 15 C-12.33 14.34 -12.66 13.68 -13 13 C-11.02 13 -9.04 13 -7 13 C-7 12.67 -7 12.34 -7 12 C-5.35 12 -3.7 12 -2 12 C-2 11.01 -2 10.02 -2 9 C-1.34 9 -0.68 9 0 9 C0 6.03 0 3.06 0 0 Z " fill="#98A1EF" transform="translate(190,7)"/>
<path d="M0 0 C1.32 0.66 2.64 1.32 4 2 C-3.00353714 6.11704678 -8.87444134 7.83007387 -17 8 C-17 7.34 -17 6.68 -17 6 C-10.565 5.505 -10.565 5.505 -4 5 C-4 4.34 -4 3.68 -4 3 C-2.68 3 -1.36 3 0 3 C0 2.01 0 1.02 0 0 Z " fill="#7C85EA" transform="translate(72,84)"/>
<path d="M0 0 C-2.76941606 0.83830973 -5.54035069 1.67082034 -8.3125 2.5 C-9.49102539 2.85771484 -9.49102539 2.85771484 -10.69335938 3.22265625 C-11.45068359 3.44824219 -12.20800781 3.67382812 -12.98828125 3.90625 C-13.68477783 4.11572266 -14.38127441 4.32519531 -15.09887695 4.54101562 C-17 5 -17 5 -20 5 C-20 5.66 -20 6.32 -20 7 C-20.99 7.33 -21.98 7.66 -23 8 C-23.66 7.34 -24.32 6.68 -25 6 C-22.4392555 5.01602415 -19.87658508 4.03770033 -17.3125 3.0625 C-16.2306543 2.64581055 -16.2306543 2.64581055 -15.12695312 2.22070312 C-5.35423693 -1.48311169 -5.35423693 -1.48311169 0 0 Z " fill="#B1B9F5" transform="translate(83,5)"/>
<path d="M0 0 C2.31 0.33 4.62 0.66 7 1 C7 1.66 7 2.32 7 3 C11.29 3 15.58 3 20 3 C20 3.33 20 3.66 20 4 C11.9703351 5.23121528 6.95268716 5.41228224 0 1 C0 0.67 0 0.34 0 0 Z " fill="#888FEB" transform="translate(17,186)"/>
<path d="M0 0 C0.99 1.485 0.99 1.485 2 3 C1.01 3.495 1.01 3.495 0 4 C-0.33 3.34 -0.66 2.68 -1 2 C-4.96 2 -8.92 2 -13 2 C-8.31096004 -2.68903996 -6.00997684 -2.18544612 0 0 Z " fill="#9297ED" transform="translate(188,4)"/>
<path d="M0 0 C0.66 0 1.32 0 2 0 C1.42365861 4.75481646 -0.55068521 7.97048212 -3 12 C-3.33 12 -3.66 12 -4 12 C-3.67 9.69 -3.34 7.38 -3 5 C-2.34 5 -1.68 5 -1 5 C-0.67 3.35 -0.34 1.7 0 0 Z " fill="#99A1ED" transform="translate(189,170)"/>
<path d="M0 0 C1.07310858 3.27185553 0.89263102 5.42947592 0.0625 8.75 C-0.22947266 9.94882813 -0.22947266 9.94882813 -0.52734375 11.171875 C-0.68332031 11.77515625 -0.83929688 12.3784375 -1 13 C-1.66 13 -2.32 13 -3 13 C-3.33 13.99 -3.66 14.98 -4 16 C-3.47606294 10.13190493 -2.23891142 5.45126259 0 0 Z " fill="#9EA8F2" transform="translate(11,61)"/>
<path d="M0 0 C2.87255066 2.42195448 3.70838919 4.59742703 4.6875 8.1875 C4.93886719 9.08855469 5.19023437 9.98960938 5.44921875 10.91796875 C5.63097656 11.60503906 5.81273437 12.29210937 6 13 C2.50586395 10.13301658 0.71163126 8.15849852 0.1875 3.6875 C0.125625 2.470625 0.06375 1.25375 0 0 Z " fill="#9DA8F0" transform="translate(181,54)"/>
<path d="M0 0 C0 0.66 0 1.32 0 2 C-0.99 2 -1.98 2 -3 2 C-3.165 2.61875 -3.33 3.2375 -3.5 3.875 C-5.90181375 7.27756949 -9.00162134 7.22612026 -13 8 C-9.81692689 4.43495812 -5.03655764 0 0 0 Z " fill="#9EA5F1" transform="translate(58,12)"/>
<path d="M0 0 C1.97986082 0.11347619 3.95891598 0.2410935 5.9375 0.375 C7.03964844 0.44460937 8.14179688 0.51421875 9.27734375 0.5859375 C10.62505859 0.79089844 10.62505859 0.79089844 12 1 C12.33 1.66 12.66 2.32 13 3 C8.07872966 3.16682272 4.49656104 3.24828052 0 1 C0 0.67 0 0.34 0 0 Z " fill="#8E97ED" transform="translate(130,90)"/>
<path d="M0 0 C3.53600465 1.91135386 5.78972846 3.62642766 8 7 C6.35 7 4.7 7 3 7 C3 6.01 3 5.02 3 4 C2.34 4 1.68 4 1 4 C0.67 2.68 0.34 1.36 0 0 Z " fill="#9199ED" transform="translate(156,23)"/>
<path d="M0 0 C4.571279 0.54855348 8.67435795 1.41744803 13 3 C11.375 4.125 11.375 4.125 9 5 C5.75 4.125 5.75 4.125 3 3 C3 2.34 3 1.68 3 1 C2.01 0.67 1.02 0.34 0 0 Z " fill="#A8B2F3" transform="translate(119,5)"/>
<path d="M0 0 C0.66 0.33 1.32 0.66 2 1 C1.54625 1.4125 1.0925 1.825 0.625 2.25 C-1.10274711 3.91951012 -1.10274711 3.91951012 -1.9375 6.125 C-3 8 -3 8 -5.125 8.75 C-6.053125 8.87375 -6.053125 8.87375 -7 9 C-5.44499019 5.18315774 -2.96404505 2.80804268 0 0 Z " fill="#9BA3EE" transform="translate(118,110)"/>
<path d="M0 0 C3.55780196 0.60990891 6.6828589 1.5783681 10 3 C9.67 3.99 9.34 4.98 9 6 C5.06326356 4.68775452 2.77280706 3.08089673 0 0 Z " fill="#969FF0" transform="translate(120,84)"/>
<path d="M0 0 C0.33 1.32 0.66 2.64 1 4 C0.0409375 4.37125 0.0409375 4.37125 -0.9375 4.75 C-3.18741541 5.81562433 -3.18741541 5.81562433 -3.75 8.125 C-3.8325 8.74375 -3.915 9.3625 -4 10 C-4.66 10 -5.32 10 -6 10 C-4.6302836 6.00499382 -2.74277578 3.19990508 0 0 Z " fill="#9BA4F1" transform="translate(26,36)"/>
<path d="M0 0 C4.875 4.75 4.875 4.75 6 7 C3.03 6.505 3.03 6.505 0 6 C0 4.02 0 2.04 0 0 Z " fill="#909AF1" transform="translate(81,113)"/>
<path d="M0 0 C1.70884005 1.62339805 3.37446717 3.29319053 5 5 C5 5.66 5 6.32 5 7 C3.68 7.33 2.36 7.66 1 8 C0.67 5.36 0.34 2.72 0 0 Z " fill="#8894F0" transform="translate(168,34)"/>
<path d="M0 0 C1.32 0.66 2.64 1.32 4 2 C-1.2734375 5.22265625 -1.2734375 5.22265625 -3 6 C-3.66 5.67 -4.32 5.34 -5 5 C-4.67 4.34 -4.34 3.68 -4 3 C-2.68 3 -1.36 3 0 3 C0 2.01 0 1.02 0 0 Z " fill="#959EEE" transform="translate(72,84)"/>
<path d="M0 0 C0.66 0.99 1.32 1.98 2 3 C1.125 6.6875 1.125 6.6875 0 10 C0.66 10.33 1.32 10.66 2 11 C1.01 11 0.02 11 -1 11 C-2.0257259 6.58937864 -2.03684712 4.07369424 0 0 Z " fill="#9FA8F1" transform="translate(174,6)"/>
<path d="M0 0 C0.66 0 1.32 0 2 0 C2 0.66 2 1.32 2 2 C2.99 2.33 3.98 2.66 5 3 C5.33 4.65 5.66 6.3 6 8 C1.125 3.375 1.125 3.375 0 0 Z " fill="#9FA7F0" transform="translate(8,176)"/>
<path d="M0 0 C0.66 0.33 1.32 0.66 2 1 C0.02 3.97 0.02 3.97 -2 7 C-3.32 6.67 -4.64 6.34 -6 6 C-4.02 4.02 -2.04 2.04 0 0 Z " fill="#9EA9F1" transform="translate(40,22)"/>
<path d="M0 0 C3.37503669 1.1858237 5.64722731 2.27573689 8 5 C7.01 5.33 6.02 5.66 5 6 C5 5.34 5 4.68 5 4 C3.68 4 2.36 4 1 4 C0.67 2.68 0.34 1.36 0 0 Z " fill="#919DF0" transform="translate(141,13)"/>
<path d="" fill="#FFFFFF" transform="translate(0,0)"/>
<path d="" fill="#FFFFFF" transform="translate(0,0)"/>
<path d="" fill="#FFFFFF" transform="translate(0,0)"/>
<path d="" fill="#FFFFFF" transform="translate(0,0)"/>
<path d="" fill="#FFFFFF" transform="translate(0,0)"/>
<path d="" fill="#FFFFFF" transform="translate(0,0)"/>
<path d="" fill="#FFFFFF" transform="translate(0,0)"/>
<path d="" fill="#FFFFFF" transform="translate(0,0)"/>
<path d="" fill="#FFFFFF" transform="translate(0,0)"/>
<path d="" fill="#FFFFFF" transform="translate(0,0)"/>
</svg>
